<?xml version="1.0" encoding="utf-8"?>
<!-- Generator: Adobe Illustrator 17.1.0, SVG Export Plug-In . SVG Version: 6.00 Build 0)  -->
<!DOCTYPE svg PUBLIC "-//W3C//DTD SVG 1.1//EN" "http://www.w3.org/Graphics/SVG/1.1/DTD/svg11.dtd">
<svg version="1.1" id="Layer_1" xmlns="http://www.w3.org/2000/svg" xmlns:xlink="http://www.w3.org/1999/xlink" x="0px" y="0px"
	 viewBox="0 0 800 800" style="enable-background:new 0 0 800 800;" xml:space="preserve">
<style type="text/css">
	.st0{fill:#A9DDF3;}
</style>
<g>
	<path class="st0" d="M383.45,729.52c0.82,0,1.61-0.1,2.37-0.28c1.63,7.83,8.57,13.7,16.89,13.7c6.4,0,12-3.51,14.97-8.69
		c1.95,1.07,4.18,1.02,6.56,1.02c6.97,0,12.71-3.44,13.62-12.55c0.02,0,0.05,0,0.06,0c4.3,0,7.78-2.83,7.78-7.13
		c0-4.3-3.47-7.46-7.78-7.46c-2.28,0-4.32,1.14-5.75,2.7c-2.24-1.59-4.98-2.45-7.93-2.45c-3.97,0-7.54,1.73-10.06,4.42
		c-3.05-2.72-7.07-4.37-11.48-4.37c-4.18,0-8.03,1.5-11,3.98c-1.93-2.42-4.9-3.97-8.23-3.97c-5.81,0-10.53,4.72-10.53,10.53
		S377.64,729.52,383.45,729.52z"/>
	<path class="st0" d="M751.19,442.55c0-5.93-1.9-11.4-5.13-15.86c8.34-5.65,13.81-15.2,13.81-26.03c0-13.03-7.92-24.21-19.2-28.98
		c1.04-2.6,1.63-5.45,1.63-8.43c0-12.51-10.15-22.66-22.66-22.66c-12.5,0-22.66,10.15-22.66,22.66c0,6.73,2.94,12.77,7.59,16.92
		c-4.73,5.5-7.59,12.66-7.59,20.48c0,8.5,3.38,16.2,8.85,21.86c-5.43,4.96-8.85,12.1-8.85,20.03c0,14.97,12.14,27.12,27.12,27.12
		C739.06,469.65,751.19,457.52,751.19,442.55z"/>
	<path class="st0" d="M453.04,54.72c-2.75,0-5.42,0.39-7.93,1.1c-5.63-17.75-22.23-30.61-41.84-30.61
		c-14.74,0-27.78,7.29-35.74,18.42c-5.31-2.95-11.44-4.65-17.96-4.65c-20.45,0-37.01,16.57-37.01,37.01s16.57,37.01,37.01,37.01
		c9.9,0,18.9-3.9,25.53-10.24c7.63,6.38,17.44,10.24,28.17,10.24c10.57,0,20.28-3.74,27.84-9.96c5.34,6.11,13.18,9.96,21.92,9.96
		c16.09,0,29.15-13.04,29.15-29.15C482.18,67.77,469.13,54.72,453.04,54.72z"/>
	<path class="st0" d="M43.64,337.05c0,10.19,3,19.68,8.16,27.65c-21.03,10.67-35.45,32.48-35.45,57.68
		c0,30.64,21.32,56.28,49.92,62.95c-0.69,2.95-1.07,6.04-1.07,9.22c0,22.21,18,40.23,40.23,40.23s40.23-18,40.23-40.23
		c0-12.53-5.74-23.73-14.72-31.1c9.2-11.16,14.72-25.47,14.72-41.06c0-17.83-7.23-33.99-18.92-45.69
		c11.54-9.36,18.92-23.63,18.92-39.63c0-28.17-22.84-51.01-51.01-51.01S43.64,308.87,43.64,337.05z"/>
	<path class="st0" d="M618.61,654.88c0.84-0.84,1.54-1.73,2.13-2.69c9.61,6.29,22.63,5.22,31.07-3.23
		c6.51-6.51,8.64-15.74,6.38-24.04c3.06-0.9,5.94-2.55,8.36-4.98c7.07-7.07,7.65-18.18,1.73-25.93c0.02-0.02,0.05-0.04,0.07-0.06
		c4.37-4.37,4.37-11.45,0-15.82c-4.37-4.37-11.45-4.37-15.82,0c-2.3,2.3-3.4,5.39-3.26,8.4c-3.9,0.67-7.64,2.49-10.63,5.5
		c-4.04,4.04-5.96,9.38-5.76,14.66c-5.86,0.33-11.63,2.74-16.11,7.22c-4.26,4.26-6.63,9.67-7.15,15.23
		c-4.42-0.5-9.02,0.93-12.42,4.32c-5.91,5.91-5.91,15.49,0,21.39C603.11,660.78,612.7,660.78,618.61,654.88z"/>
	<path class="st0" d="M690.05,184.64c-4.93-4.93-11.06-7.89-17.44-8.92c2.23-11.63-1.16-24.11-10.16-33.12
		c-10.82-10.82-26.71-13.53-40.05-8.11c-1.31-3.04-3.18-5.88-5.65-8.36c-10.4-10.4-27.27-10.4-37.66,0
		c-10.4,10.4-10.4,27.27,0,37.66c5.59,5.59,13.06,8.18,20.39,7.75c0.64,8.51,4.21,16.84,10.71,23.35
		c7.06,7.06,16.27,10.65,25.52,10.81c-0.4,8.64,2.7,17.42,9.3,24.02c12.44,12.44,32.62,12.44,45.07,0
		C702.5,217.27,702.5,197.09,690.05,184.64z"/>
	<path class="st0" d="M202.81,110.45c-2.29,2.29-4.2,4.84-5.7,7.55c-19.51-10.12-44.12-7-60.5,9.38
		c-12.31,12.31-17.12,29.27-14.47,45.24c-6.91,1.96-13.45,5.67-18.9,11.11c-17.07,17.07-17.07,44.74,0,61.81s44.74,17.07,61.81,0
		c8.27-8.27,12.52-19.03,12.78-29.88c11.69-1.03,23.11-6.02,32.08-14.97c8.84-8.84,13.81-20.05,14.93-31.58
		c9.56,0.64,19.33-2.69,26.64-9.99c13.44-13.44,13.44-35.23,0-48.66C238.04,97,216.25,97,202.81,110.45z"/>
	<path class="st0" d="M172.36,629.56c1.25,1.25,2.78,2.05,4.41,2.4c-1.27,3.9-0.36,8.35,2.74,11.44c3.76,3.76,9.54,4.3,13.87,1.6
		c0.28,0.45,0.62,0.87,1,1.26c2.74,2.74,7.15,2.74,9.89,0c2.74-2.74,2.74-7.15,0-9.89c-1.54-1.54-3.62-2.22-5.63-2.02
		c-0.24-2.51-1.32-4.94-3.24-6.85c-2.19-2.19-5.07-3.28-7.93-3.29c0.28-2.57-0.57-5.23-2.54-7.19c-3.46-3.46-9.07-3.46-12.53,0
		C168.9,620.47,168.9,626.09,172.36,629.56z"/>
</g>
</svg>
