<?xml version="1.0" encoding="utf-8"?>
<!-- Generator: Adobe Illustrator 17.1.0, SVG Export Plug-In . SVG Version: 6.00 Build 0)  -->
<!DOCTYPE svg PUBLIC "-//W3C//DTD SVG 1.1//EN" "http://www.w3.org/Graphics/SVG/1.1/DTD/svg11.dtd">
<svg version="1.1" id="Layer_1" xmlns="http://www.w3.org/2000/svg" xmlns:xlink="http://www.w3.org/1999/xlink" x="0px" y="0px"
	 viewBox="0 0 800 800" enable-background="new 0 0 800 800" xml:space="preserve">
<g>
	<g>
		<path fill="#488100" d="M400,187.1c56.9,0,110.4,22.2,150.6,62.4c40.2,40.2,62.4,93.7,62.4,150.6s-22.2,110.4-62.4,150.6
			c-40.2,40.2-93.7,62.4-150.6,62.4S289.6,591,249.4,550.7C209.1,510.5,187,457,187,400.1s22.2-110.4,62.4-150.6
			S343.1,187.1,400,187.1 M400,178.1c-122.6,0-222,99.4-222,222s99.4,222,222,222s222-99.4,222-222S522.6,178.1,400,178.1L400,178.1
			z"/>
	</g>
</g>
<g>
	<g>
		<path fill="#488100" d="M387.1,185.9c-8.2,0.5-29.5,0.7-36.5,5.8c-2.1,1.5-20.1,10-24.6,17.8c11.1,2.3,22.5,2.6,33.8,1.3
			c-3.7,18-2.2,39.3,7.2,55.5c15.7,27.2,17.2,5.2,27.3-4.4c9.5-9,25-15.1,36.1-22.2c14-9,7.8-48.4,6.9-51.7
			C426.2,186,406.7,184.7,387.1,185.9z"/>
	</g>
	<g>
		<path fill="#488100" d="M590.1,421.4c1.4,8,0.6,17.7,9.9,21.1c20,7.2,16.8-15.8,17.5-29.7c1.5-32.1-4-64.5-16.4-94.2
			c-11.8-28.3-29.7-54.1-52.1-75.1c-15.7-14.7-22-10.4-34.6,6.9c-7.9,10.7-17.9,25.7-13.9,39.8c17.4-4.1,10.9,4.5,24.9,11.6
			c10.9-12.9-4.9-43.9,15.5-45.9c-1.5,16.1-5.7,19.5,10.8,20.1c18.7,0.6-5.2,12.7-9.1,14.3c-0.5,20.6-19.4,15.8-32,16.3
			c-9.3,0.4-17.2,13.1-24.6,17.9c-7.6,4.9-0.7,12.2-1.4,18.8c-1.1,10.4-18.9-1.6-22.7,11.8c-4.3,15.4,16.7,17.2,25.2,10.5
			c9.1-7.2,15.5-22.8,29.2-22.3c-5,11.8,13.4,12,11,24.4c21.3-0.2-6-20.7,7.8-29.1c3,8.2,5,16.8,6,25.5c8.7,6.6,15.2-11.8,24.1-9
			c-10.6-32.9,25-10,34.2,0c-8.9-1.5-18.1-0.8-26.7,2c-5.6,1.8-26.4,13.7-8,14.5c6.8,0.3,21.3,3.2,14.1,14.1
			c-5.9,9.1-18.6,5.8-27.3,6.6c-8.3,0.7-16,4.5-24.4,4.5c-13.5,0.1-8.9-10.8-12.1-19.8c-4.7-13.6-46.7,4-54.2,11.1
			c-26.5,22.2-32.6,90,13.4,90c68.6,0,17,74.2,36.1,111.9c49-28.8,85.5-76.7,100.1-131.6c-13.5,2.1-28.2-4.8-32.7-18.1
			c-3.3-9.7-1.6-20.1,0-29.9C584.4,407.9,589.2,416.4,590.1,421.4C591.1,427.7,589,415.2,590.1,421.4z"/>
	</g>
	<g>
		<path fill="#488100" d="M375.7,499c-6.5-1.2-13.9-1.4-19.2-5.9c-9.4-7.9-0.8-12.9-10.3-21.3c-7.9-7-22.9-12.8-32.9-16.5
			c-16.1-5.9-18.7,7.9-32.2,8.9c-0.1-13.7-5.2-3.9-15.8-6c0.3-6.1,0.6-12.3,0.9-18.4c-26.6,2.1-0.9-6.5-6.3-16.7
			c-5.5,2-17.2,22-24.1,13.6c-2.6-10.3-5.4-19.9,3-28.5c7-7.1,17.9-10.9,27.8-9.6c9.8,1.3,2.3,19.1,10.6,19.9
			c-3.4-0.3,19.6-50.1,23.2-54.8c3.6-4.8,36-25.4,26.4-35.9c-3.2,0.4-6.1,1.6-8.6,3.7c-3.8-6.2,27.3-10.1,31.1-16.1
			c-1.5-5.7-2.1-7-7.7-10.3c-9.1-5.3-1.5-14.1-8.3-20.8c-5.6,10-13.5-3.5-2.5-11.7c9.7-7.3,17.6-15.2,7.2-26.7
			c-17.7-19.6-32.6-23.6-11.9-48.4c-62.9,22.7-110.3,73.3-133.1,136.3c0,18.1-9.6,38.4-10.6,57.2c3.4,16.3-2.4,37.5,8.2,46.7
			c-6.9-6,10.9-20.2,10.6-29.3c12.2,2.6,2.5,31.2,20.9,38.1c7,2.6,14.5,3.1,21.6,5.1c10.2,2.9,14.6,12.8,24.4,15.3
			c26.5,6.9-12.9,27.3,4.8,41.7c3.9,3.2,6.1,7.2,8.7,11.6c5.8,10.1,11.1,9.1,17.4,15.6c8.4,1.3,6,54.8,6.4,62.7
			c13.3,6.5,15,10.1,25-0.5c6.1-6.4,18-11.7,21.9-19.8c3-6.4,0.7-12.5,8-16.6c10.3-5.9,14.9-7.9,17.8-20.4
			C381.5,525.8,405.4,504.3,375.7,499C369,497.7,382.4,500.2,375.7,499z M268.8,284.9c8.4-11.1,28.2-15.1,32.8-33.2
			c2.5-10,11.7-10.9,16.5-0.6c6.1,12.9-8.6,13.5-10.8,22.5c8.9-3,11.9-1.9,13.4,6.9c-5,1.5-17-8.7-15.7,4
			c0.7,6.5-4.1,37.6-11.1,39.3c-4.7,1.1-11.7-18.8-22.4-20.1C259,302.2,262.8,292.9,268.8,284.9
			C265.3,289.5,270.1,283.3,268.8,284.9z"/>
	</g>
</g>
</svg>
