<?xml version="1.0" encoding="utf-8"?>
<!-- Generator: Adobe Illustrator 17.1.0, SVG Export Plug-In . SVG Version: 6.00 Build 0)  -->
<!DOCTYPE svg PUBLIC "-//W3C//DTD SVG 1.1//EN" "http://www.w3.org/Graphics/SVG/1.1/DTD/svg11.dtd">
<svg version="1.1" id="Layer_1" xmlns="http://www.w3.org/2000/svg" xmlns:xlink="http://www.w3.org/1999/xlink" x="0px" y="0px"
	 viewBox="0 0 800 800" style="enable-background:new 0 0 800 800;" xml:space="preserve">
<style type="text/css">
	.st0{fill:#488100;}
</style>
<g>
	<g>
		<path class="st0" d="M400,155.39c65.36,0,126.82,25.46,173.03,71.68c46.22,46.22,71.68,107.66,71.68,173.03
			s-25.46,126.82-71.68,173.03C526.82,619.35,465.37,644.8,400,644.8s-126.82-25.46-173.03-71.67
			c-46.22-46.22-71.68-107.66-71.68-173.03s25.46-126.82,71.68-173.03S334.64,155.39,400,155.39 M400,145.08
			c-140.83,0-255,114.17-255,255s114.17,255,255,255s255-114.17,255-255S540.83,145.08,400,145.08L400,145.08z"/>
	</g>
</g>
<g>
	<g>
		<path class="st0" d="M385.17,154.05c-9.46,0.59-33.89,0.78-41.96,6.61c-2.4,1.73-23.11,11.51-28.22,20.39
			c12.74,2.64,25.88,3.02,38.79,1.53c-4.26,20.62-2.47,45.16,8.25,63.7c18.05,31.24,19.75,6.01,31.38-5.01
			c10.9-10.34,28.77-17.3,41.52-25.52c16.09-10.37,8.92-55.58,7.88-59.39C430.09,154.15,407.69,152.63,385.17,154.05z"/>
	</g>
	<g>
		<path class="st0" d="M618.31,424.61c1.56,9.14,0.74,20.35,11.39,24.19c22.99,8.29,19.32-18.12,20.09-34.09
			c1.75-36.91-4.65-74.09-18.89-108.22c-13.57-32.56-34.14-62.12-59.87-86.25c-18.07-16.94-25.24-11.91-39.76,7.91
			c-9.03,12.33-20.58,29.49-16,45.68c20.03-4.71,12.51,5.16,28.64,13.3c12.48-14.79-5.62-50.38,17.81-52.75
			c-1.75,18.47-6.6,22.44,12.45,23.05c21.53,0.71-5.95,14.63-10.41,16.4c-0.58,23.68-22.25,18.12-36.77,18.72
			c-10.74,0.43-19.73,15.06-28.26,20.59c-8.68,5.62-0.78,13.99-1.59,21.57c-1.27,11.94-21.73-1.86-26.02,13.57
			c-4.92,17.73,19.22,19.8,29,12.07c10.44-8.26,17.85-26.21,33.49-25.62c-5.76,13.5,15.38,13.81,12.64,28.01
			c24.45-0.2-6.84-23.8,8.91-33.42c3.39,9.47,5.7,19.35,6.84,29.34c9.98,7.6,17.42-13.56,27.67-10.33
			c-12.19-37.81,28.75-11.47,39.34,0c-10.21-1.78-20.82-0.9-30.66,2.32c-6.47,2.12-30.33,15.77-9.17,16.69
			c7.8,0.33,24.42,3.62,16.25,16.25c-6.73,10.4-21.33,6.7-31.38,7.6c-9.5,0.85-18.4,5.13-28.01,5.18
			c-15.45,0.07-10.27-12.39-13.85-22.73c-5.39-15.6-53.66,4.65-62.25,12.77c-30.43,25.49-37.5,103.35,15.34,103.37
			c78.77,0.03,19.55,85.26,41.43,128.52c56.25-33.13,98.23-88.12,115.01-151.22c-15.55,2.38-32.42-5.57-37.55-20.79
			c-3.74-11.1-1.85-23.06-0.01-34.31C611.8,409.08,617.31,418.8,618.31,424.61C619.54,431.75,617.08,417.46,618.31,424.61z"/>
	</g>
	<g>
		<path class="st0" d="M372.1,513.66c-7.45-1.36-15.93-1.62-22.07-6.76c-10.82-9.08-0.94-14.79-11.83-24.42
			c-9.11-8.06-26.35-14.73-37.75-18.9c-18.46-6.77-21.52,9.05-36.94,10.24c-0.17-15.68-6.01-4.48-18.17-6.87
			c0.33-7.05,0.66-14.08,1-21.13c-30.51,2.37-1.01-7.45-7.29-19.21c-6.28,2.3-19.73,25.26-27.74,15.58
			c-2.95-11.87-6.2-22.89,3.49-32.78c8.03-8.2,20.55-12.52,31.9-10.97c11.21,1.52,2.6,21.91,12.19,22.85
			c-3.88-0.36,22.5-57.5,26.63-62.99c4.17-5.55,41.4-29.16,30.33-41.29c-3.71,0.45-7,1.86-9.86,4.22
			c-4.33-7.08,31.39-11.57,35.76-18.53c-1.72-6.56-2.41-8.06-8.84-11.83c-10.41-6.12-1.73-16.16-9.55-23.87
			c-6.38,11.44-15.47-4.06-2.89-13.46c11.16-8.33,20.17-17.47,8.29-30.63c-20.36-22.57-37.39-27.12-13.66-55.6
			c-72.26,26.05-126.66,84.15-152.84,156.59c0,20.75-11.08,44.06-12.19,65.75c3.93,18.7-2.73,43.11,9.4,53.63
			c-7.93-6.87,12.55-23.18,12.12-33.66c14.04,2.96,2.82,35.8,23.99,43.76c8.01,3.02,16.61,3.51,24.81,5.85
			c11.74,3.35,16.77,14.66,28.03,17.57c30.44,7.88-14.79,31.35,5.52,47.91c4.48,3.65,7.03,8.23,9.96,13.29
			c6.7,11.6,12.78,10.46,19.94,17.89c9.7,1.53,6.92,62.96,7.34,71.99c15.29,7.41,17.27,11.57,28.77-0.53
			c6.96-7.34,20.72-13.4,25.14-22.7c3.48-7.32,0.85-14.34,9.16-19.05c11.88-6.73,17.14-9.11,20.45-23.45
			C378.74,544.49,406.26,519.84,372.1,513.66C364.43,512.26,379.77,515.05,372.1,513.66z M249.34,267.79
			c9.69-12.78,32.39-17.3,37.69-38.09c2.92-11.49,13.39-12.55,18.99-0.65c6.99,14.86-9.83,15.52-12.42,25.81
			c10.25-3.44,13.7-2.15,15.41,7.87c-5.75,1.75-19.52-9.98-18.02,4.58c0.77,7.51-4.69,43.24-12.72,45.13
			c-5.44,1.29-13.47-21.65-25.7-23.06C238,287.68,242.42,276.92,249.34,267.79C245.31,273.11,250.75,265.93,249.34,267.79z"/>
	</g>
</g>
</svg>
