<?xml version="1.0" encoding="utf-8"?>
<!-- Generator: Adobe Illustrator 17.0.2, SVG Export Plug-In . SVG Version: 6.00 Build 0)  -->
<!DOCTYPE svg PUBLIC "-//W3C//DTD SVG 1.1//EN" "http://www.w3.org/Graphics/SVG/1.1/DTD/svg11.dtd">
<svg version="1.1" id="Layer_1" xmlns="http://www.w3.org/2000/svg" xmlns:xlink="http://www.w3.org/1999/xlink" x="0px" y="0px"
	 width="830px" height="530px" viewBox="0 0 830 530" style="enable-background:new 0 0 830 530;" xml:space="preserve">
<style type="text/css">
	.st0{fill:#FFFFFF;}
	.st1{fill:#50972B;}
</style>
<path class="st0" d="M627.81,265c0,118.13-95.28,213.9-212.81,213.9c-117.53,0-212.81-95.77-212.81-213.9S297.47,51.1,415,51.1
	C532.53,51.1,627.81,146.87,627.81,265"/>
<path class="st1" d="M413.8,128.62c7.49,4.32,15.44,9.88,21.49,15.77l-2.38,2.39c-11.94-1.27-24.51,0.32-35.83,0.49
	c-1.26-1.27-3.8-3.19-1.44-4.79L413.8,128.62z M624.87,276.9c0.16,5.39,0.66,10.02-1.44,15.53c-21.81,6.2-36.13-16.89-57.29-13.4
	l2.39,11.97c19.58,0.64,31.8,19.42,52.03,18.61c-2.87,5.74,1.28,20.86-11.45,14.81c-13.21-3.18-22.77-14.81-37.25-14.81
	c-1.75,3.21-0.64,7.65-0.95,11.44c15.28,2.39,26.26,15.31,41.53,17.69c-1.44,5.25-2.86,11.12-7.16,14.32
	c-12.42-3.02-22.13-14.18-35.35-13.86l-2.36,10.99c12.57,0.32,20.69,11.44,31.99,14.78c0.31,4.64-3.83,8.78-6.22,12.92
	c-10.03-3.01-17.68-11.63-29.13-10.99c-0.16-4.32,2.4-9.22,1.44-13.84c-12.87,3.83-21.5-8.13-31.04-15.3
	c-0.28-23.47-24.98-38.87-26.29-60.86c-0.25-4.39,0.42-9.07,2.41-14.09c8.12-18.78,5.57-43.16-3.33-60.66
	c-2.7-4.61-7.5-8.25-11.97-10.95c6.54,13.85,14.5,30.22,10.53,47.25c-0.46,13.15-8.22,25.78-8.31,38.46
	c-0.03,4.52,0.94,9.04,3.53,13.61c10.35,18.64,28.98,36.29,21.98,59.68c-1.93,7.18-7.66,12.74-9.09,20.05
	c12.11,10.03,23.56,21.34,39.63,21.97c5.73-3.66,2.55-19.88,14.32-12.39l17.2,8.6c-1.25,4.6-5.11,8.73-8.6,11.9
	c-6.53-3.18-12.89-6.98-21.03-6.67c-2.4,2.55-4.46,5.4-4.28,9.06c5.73,0.94,10.98,3.36,15.76,6.71c-2.22,4.78-6.55,7.78-10.53,11.44
	l-13.34-4.77c-2.23,3.19-6.86,6.54-5.23,10.04c3.01,1.29,6.35,3.03,8.57,5.26c-5.89,6.37-13.35,10.46-20.54,14.78
	c-6.19-20.22-26.57-34.4-24.82-57.78l-0.95-0.95c-4.79,5.39-3.19,14-2.88,20.99c5.74,14.65,19.41,25.96,21.49,42.02
	c-2.39,4.13-7.79,4.96-11.94,6.71c0.48-28.96-43.45-50.92-15.28-80.21c9.4-14.34,25.14-28.03,19.56-47.78
	c-5.73-19.07-25.98-30.88-25.8-52.25l0.03-1.67c4.61-22.29,18.62-46.01,7.16-69.72c-3.2-9.54-10.33-20.38-20.04-24.36
	c14.48,16.57,20.21,43.6,11.93,65.9c-4.17,8.87-9.92,19.43-10.5,29.86h-0.04c-0.31,5.44,0.81,10.86,4.32,15.99
	c10.99,17.83,30.08,37.42,19.1,60.66c-12.41,18.61-34.06,37.55-21.97,62.07c8.75,14.64,22.3,29.25,18.64,47.25l-14.32,4.77
	c9.55-33.58-37.25-53.3-17.66-86.89c12.1-17.99,33.73-34.86,21.48-58.73c-7.32-14.79-22.45-23.54-21.97-42.03l0.52-3.1
	c4.93-26.21,24.86-51.03,10.92-79.04c-3.66-8.27-10.98-16.7-19.1-21.48l-0.49,0.49c16.24,15.76,21.18,41.68,12.43,62.53
	c-4.09,12.23-13.06,24.41-14.88,37.51c-0.87,6.18-0.13,12.58,3.44,19.32c10.35,16.38,28.48,33.76,17.17,54.94
	c-11.92,17.5-31.82,34.51-23.88,57.26c8.76,19.9,27.04,38.86,17.17,63.54l-14.78,3.34c11.77-24.05-5.88-47.91-16.22-68.77
	c-12.58-29.93,27.03-44.25,27.67-71.61c-0.15-17.66-18.92-27.68-22.89-43.92c-8.12-6.85-16.55,2.73-26.26,0.95
	c-7.17,1.44-18.18-9.87-22.46,2.39c-5.1,17.98-28.32,31.19-18.12,52.51c9.71,18.95,33.09,32.8,25.28,57.33
	c-6.99,22.9-30.09,44.71-15.76,71.13c-5.88-1.91-16.87,1.74-16.71-7.66c-9.07-31.99,29.6-50.63,17.66-82.6
	c-5.56-19.58-30.88-30.4-25.31-53.96c4.12-19.39,25.88-32.95,22.83-54.18c-0.25-1.78-0.68-3.6-1.31-5.5
	c-8.12-22.92-24.69-45.84-14.81-72.59c2.71-7.64,8.12-14.17,12.88-20.99c-15.76,8.43-23.71,26.27-23.38,44.41
	c-0.69,19.73,13.89,36.63,15.96,54.68c0.82,7.28-0.38,14.74-5.46,22.66c-10.34,14.03-23.86,28.82-17.66,47.29
	c5.89,18.63,29.13,29.92,27.7,51.57c-0.16,25.61-29.92,41.56-21.49,70.21l-14.81-4.81c-5.88-25.46,21.17-38.48,21.48-62.04
	c3.83-27.08-30.72-37.13-28.64-63.54c-0.15-20.06,17.51-32.77,25.31-49.64c1.34-4.11,1.78-7.99,1.6-11.71
	c-0.95-18.66-17.77-33.25-14.98-54.22c0.94-15.44,6.19-28.97,16.22-40.58c-13.84,5.56-19.56,21.49-23.38,34.87
	c-6.64,21.44,9.2,40.73,10.79,59.94c0.7,8.48-1.37,16.92-9.35,25.54c-11.47,13.51-23.09,30.56-14.82,48.72
	c8.76,20.04,36.31,35.64,24.36,60.63c-6.52,15.76-22.12,27.69-21.49,46.31c-4.13-1.75-8.42-3.5-11.94-6.67
	c0-23.71,33.73-38.52,17.66-63.51c-1.43,4.93-1.73,11.63-2.85,17.2c-5.58,14.49-17.51,26.09-21.97,41.07
	c-7.47-2.88-15.27-8.94-21.49-15.3l8.61-5.26c-0.96-3.19-3.5-5.89-5.72-8.6c-5.59-0.78-9.25,2.88-13.86,4.32
	c-3.98-3.51-7.82-6.69-10.99-10.99c2.85-8.13,25.17-1.41,13.87-14.78c-7.63-4.77-15.29,2.04-21.98,5.23l-9.06-11.44
	c7.8-4.77,15.58-11.47,25.28-9.55c2.39,4.31,2.56,10.64,7.16,12.88c16.4-0.32,28.02-12.72,40.59-22.43
	c-8.76-13.04-15.89-31.03-8.11-46.8c6.24-15.8,22.48-29.1,23.22-46.57c0.17-3.97-0.45-8.16-2.19-12.66
	c-8.59-22.13-11.62-52.03,4.77-71.62c-8.92,2.4-14.17,13.51-17.2,21.94c-9.86,21.61,2.61,41.62,3.04,62.33
	c0.06,3.72-0.24,7.46-1.15,11.22c-8.44,17.03-22.11,31.97-24.33,51.57c-9.71,6.19-17.68,17.03-31.52,13.37
	c-0.49,3.66,0.63,9.23,1.9,13.37c-10.97-0.46-18.46,7.63-27.7,11.45c-4.92-1.58-6.2-7.94-8.11-12.39
	c10.81-3.65,18.62-14.5,31.04-14.32c1.44-4-0.81-7.66-1.44-11.48c-15.45-6.86-39.93,33.89-41.99-1.44
	c15.44-0.95,25.3-15.28,40.59-16.71l0.46-11.45c-17.35-1.75-28.51,16.08-45.85,14.32l-3.82-15.27
	c20.06,1.25,32.01-16.72,51.11-17.69c2.54-3.34,2.85-8.27,3.33-12.88c-20.85-2.72-35.16,20.39-57.29,13.37c0,0-0.77-9.62-1.18-15.04
	h0.03c-0.15-2.12-0.3-3.6-0.3-3.6c19.74,7.66,37.08-6.52,53.96-13.83c4.29-1.29,10.99,0.94,12.92-3.83
	c-0.17-3.66,6.51-7.94,0.95-10.5c-24.68-3.35-41.08,26.42-66.39,12.88l-1.9-3.83c5.26-71.94,45.83-141.48,113.15-175.7
	c27.26-15.58,61.14-23.52,95.3-23.81c41.23-0.34,82.88,10.47,113.87,32.41c30.09,18.46,58.88,48.88,74.5,79.76
	c14.94,27.06,21.82,57.42,23.87,89.74c-26.11,19.73-43.63-18.58-70.21-10.01c1.43,4.15,2.22,8.44,5.27,11.94
	c23.56-0.17,39.79,24.5,64.46,14.78L624.87,276.9z M324.96,188.31c-16.55-10.83-37.54-0.63-52.97,5.27
	c-1.43-14.49-7.32-27.69-19.59-37.24c-1.19-0.59-2.84-1.84-4.32-1.93c-0.89-0.06-1.73,0.3-2.39,1.44
	c5.56,34.22-16.68,58.09-32.44,84.04c5.25,4.29,13.68,3.65,20.04,2.39c16.71-6.68,32.63-18.31,52.52-14.32
	c5.89-10.03,15.77-19.74,23.88-27.7C314.64,195.97,321.45,193.24,324.96,188.31L324.96,188.31z M375.59,209.8
	c-0.32,2.06,0.16,5.73,3.33,4.31c4.94-6.84,13.69-1.43,19.1-0.95v-1.92c-2.97-4.66-9.07-7-15.27-6.77
	c-1.43,0.05-2.88,0.26-4.28,0.59C376.39,205.52,374.95,207.41,375.59,209.8 M453.42,189.29c-4.45-9.87-14.63-13.87-23.88-16.25
	c-4.53-0.56-9.23-0.93-13.9-0.98c-0.88-0.01-1.75-0.02-2.62,0c-13.05,0.26-25.52,3.61-33.13,14.35c-1.09,3.03-5.9,7.29-1.44,10.01
	c10.02-0.64,21.47-1.9,28.16,6.71c0,7.65,4.94,17.82-3.33,21.49c-6.86-6.35-14.97,2.7-22.44-2.39c-3.5-2.07-5.72,0.35-7.16,3.37
	c-2.07,19.73,8.26,41.51,26.72,52.49c7.48,2.7,17.54,5.26,25.35,1.44c18.78-8.75,26.56-28.79,30.06-47.25
	c-0.47-3.51-0.3-10.36-5.23-10.53c-5.57,3.52-13.69,1.44-19.59,0c-3.49,1.13-3.65,6.23-7.62,7.2l-2.42-1.93
	c-2.07-8.74-3.35-21.16,4.77-27.21c9.08-3.66,19.74-5.26,29.13-2.39C456.61,194.38,453.91,192,453.42,189.29 M443.83,204.99
	c-0.63,0.02-1.25,0.05-1.87,0.07c-3.34,2.22-13.05,0.63-9.55,8.11c6.05-4.79,14.49-1.43,20.54,0.95c2.24-1.11,1.75-3.34,1.9-5.26
	C452.91,205.24,448.27,204.9,443.83,204.99 M513.13,137.69c-11.78-0.62-21.65,6.06-32.47,9.09c-0.94-9.21,6.05-18.94,7.65-28.19
	c-17.5,1.13-31.37,11.66-45.85,20.08c-3.35-8.1-6.71-16.23-10.04-24.36l19.1-18.15l0.49-2.39l-25.8-1.44
	c-4.44-7.78-6.2-17.16-11.45-24.33c-4.3,8.12-7.19,16.71-11.48,24.82l-25.77,1.44v1.9l19.56,17.66c-2.39,9.08-4.61,18.94-10.5,25.8
	c-11.46-6.86-22.75-14.33-35.32-19.1c-3.02-0.97-7.33-2.56-10.04-0.49c3.97,8.76,9.54,18.18,8.6,27.73
	c-5.26-0.97-9.39-4.34-14.33-5.75c-5.9-1.61-12.91-4.76-18.64-2.85c9.55,13.36,17.35,27.35,20.05,43.43
	c31.69-15.29,68.64-23.71,107-17.17c17.98,2.86,34.51,10.18,50.59,16.22C495.13,164.78,505.79,151.23,513.13,137.69 M567.55,229.38
	c16.22,4.29,32.5,21.97,49.67,10.5c-14.96-24.82-37.23-47.75-31.04-80.21c0.65-2.22-0.78-4.46-2.84-4.78
	c-9.7,3.97-17.22,13.53-21.06,22.93c-1.58,5.56-2.51,11.47-4.74,16.71c-11.63-6.05-24.03-11.91-38.2-10.5
	c-5.11,0.64-12.43,0.97-13.37,6.21c16.08,8.59,29.29,22.93,39.15,38.2C551.97,227.32,560.39,228.28,567.55,229.38 M397.56,251.82
	l0.46,2.88c6.22,4.14,8.13,11.17,16.74,10.53c7.63,0.45,13.36-6.7,17.17-12.43C421.6,251.37,409.03,253.58,397.56,251.82
	L397.56,251.82z M406.16,238.94c0.31,1.27-0.79,3.18,0.95,3.83c5.09-1.11,14.32,2.71,17.17-3.34c-1.99-2.22-5.23-3.23-8.63-3.23
	C412.24,236.19,408.71,237.18,406.16,238.94"/>
<g>
	<path class="st1" d="M560.65,472.29h-2.99v-19.67h-7.41v-2.68h17.84v2.68h-7.44V472.29z"/>
	<path class="st1" d="M593.7,472.29V452.3l-7.14,19.99h-2.58l-7.38-19.78v19.78h-2.99v-22.35h5.09l6.64,18.23l6.33-18.23h4.94v22.35
		H593.7z"/>
</g>
</svg>
